<?xml version="1.0" encoding="utf-8"?>
<!-- Generator: Adobe Illustrator 27.4.0, SVG Export Plug-In . SVG Version: 6.00 Build 0)  -->
<svg version="1.1" id="Layer_3" xmlns="http://www.w3.org/2000/svg" xmlns:xlink="http://www.w3.org/1999/xlink" x="0px" y="0px"
	 viewBox="0 0 934.6 216" style="enable-background:new 0 0 934.6 216;" xml:space="preserve">
<style type="text/css">
	.st0{fill:#13234B;}
	.st1{fill:#122149;}
	.st2{fill:#FFFFFF;}
	.st3{fill:#CF202F;}
</style>
<g>
	<path class="st0" d="M254.9,85.3c-6.4-5.4-13.9-6.3-23.3-6.3c-3.5,0-7,0.2-10.4,0.2c-4.9,0-8.5-0.2-10.5-0.2
		c-0.4,0-0.6,0.1-0.6,0.4v1.9c0,0.1,0,0.1,0,0.2c0,0.1,0.1,0.1,0.1,0.2c0.1,0,0.1,0.1,0.2,0.1c0.1,0,0.1,0,0.2,0h3.8
		c1.4,0,2.4,0.3,2.5,2c0.1,1,0.4,10.9,0.4,12.7v5.3c0,5.3-0.3,21-0.5,22.4c-0.2,1.2-0.9,1.7-2.3,1.7h-4c-0.4,0-0.6,0.1-0.6,0.4v1.7
		c0,0.5,0.1,0.6,0.4,0.6c1,0,3.8-0.2,9.9-0.2c3.5,0,10.6,0.2,13.2,0.2c4.7,0,15.6-0.1,22.4-7.5c4.6-5,6.8-10.3,6.8-18.2
		C262.8,95,259.5,89,254.9,85.3z M248.1,119c-1.7,2.2-3.9,4-6.4,5.2c-2.5,1.2-5.3,1.8-8.1,1.8c-2.6,0-5.3-0.6-6.1-1.9
		c-0.9-1.1-1.3-2.5-1.3-3.9c0-4.3-0.1-16.2-0.1-17v-5c0-1.1,0-10.2,0.1-13.1c0-1.4,0.3-2.5,1.3-3.1c1-0.6,2.9-0.7,4.5-0.7
		c5.9,0,11.5,2.4,15.6,6.6c3.5,4.3,5.5,9.6,5.6,15.2C253.2,108.8,251.5,114.3,248.1,119z"/>
	<path class="st0" d="M341.2,78.9c-0.6,0-2.7,0.2-6.6,0.2c-4.3,0-6.7-0.2-7.4-0.2c-0.4,0-0.6,0.2-0.6,0.6v1.7c0,0.4,0.1,0.6,0.5,0.6
		h1.9c1.7,0,2.4,1,2.4,2c0,3.8-7.9,26.8-10,32.9h-0.3l-10-32.2c-0.4-1.2,0.1-2.7,1.5-2.7h2.4c0.3,0,0.5-0.2,0.5-0.6v-1.6
		c0-0.4-0.1-0.6-0.5-0.6c-0.6,0-3.3,0.2-9.1,0.2c-5.8,0-8.5-0.2-9.1-0.2c-0.4,0-0.6,0.2-0.6,0.6v1.7c0,0.1,0,0.1,0,0.2
		c0,0.1,0.1,0.1,0.1,0.2c0,0,0.1,0.1,0.2,0.1c0.1,0,0.1,0,0.2,0h1.5c0.5,0,0.9,0.1,1.3,0.3c0.4,0.2,0.8,0.5,1,0.9
		c0.8,1.1,1.2,2.4,1.3,3.7c-0.1,2.7-9.4,28.3-10,29.7l-0.1-0.1l-10.2-32.2c-0.1-0.3-0.2-0.6-0.2-0.9c0-0.3,0.1-0.6,0.3-0.8
		c0.2-0.3,0.4-0.5,0.7-0.6c0.3-0.1,0.6-0.2,0.9-0.1h1.3c0.5,0,0.6-0.2,0.6-0.6v-1.7c0-0.4-0.1-0.5-0.6-0.5c-0.7,0-3.6,0.2-8.6,0.2
		c-6.3,0-8.4-0.2-8.9-0.2c-0.3,0-0.6,0.1-0.6,0.5v1.8c0,0.3,0.1,0.5,0.4,0.5h2c1.1,0,2.2,0.6,2.9,2.5l15.6,44.5
		c0.1,0.3,0.2,0.6,0.5,0.8c0.3,0.2,0.6,0.3,0.9,0.3c0.4,0,0.8-0.2,1.1-0.4c0.3-0.2,0.6-0.6,0.7-0.9c0.3-0.8,12.6-34.9,13.2-36.8h0.3
		l12.6,36.6c0.3,0.8,0.8,1.5,1.7,1.5c1,0,1.5-1.1,1.8-1.8c1.4-3.5,15.6-42.5,16.3-44c0.2-0.6,0.6-1.2,1.2-1.6
		c0.5-0.4,1.2-0.6,1.9-0.7h1.5c0.4,0,0.5-0.2,0.5-0.6v-1.9C341.6,79.1,341.4,78.9,341.2,78.9z"/>
	<path class="st0" d="M369.8,125.9h-2.9c-1.7,0-2.8-0.3-2.8-2.5c0-0.8-0.1-16.8-0.1-17.5v-5.4c0-0.8,0.1-16.2,0.1-16.9
		c0-1.3,1.1-1.9,2.6-1.9h2.7c0.1,0,0.1,0,0.2,0c0.1,0,0.1-0.1,0.2-0.1c0.1-0.1,0.1-0.1,0.1-0.2c0-0.1,0-0.1,0-0.2v-1.6
		c0-0.4-0.1-0.6-0.6-0.6c-1,0-3.2,0.2-9.9,0.2s-10.5-0.2-11.3-0.2c-0.3,0-0.4,0.1-0.4,0.5v1.8c0,0.4,0.1,0.5,0.6,0.5h3.6
		c2,0,2.6,0.7,2.9,2.4c0.1,0.9,0.2,13.4,0.2,15.1v4.9c0,3.8-0.1,18.8-0.3,19.8c-0.3,1.9-1.8,2-3.2,2h-2.8c-0.4,0-0.6,0.1-0.6,0.4
		v1.9c0,0.4,0.1,0.5,0.6,0.5c0.7,0,3.8-0.2,10.7-0.2c6.5,0,9.3,0.2,10.2,0.2c0.4,0,0.7-0.1,0.7-0.6v-1.7c0-0.1,0-0.1-0.1-0.2
		c0-0.1-0.1-0.1-0.1-0.2c-0.1,0-0.1-0.1-0.2-0.1C369.9,125.9,369.9,125.9,369.8,125.9z"/>
	<path class="st0" d="M430,107c-0.7,0-3.1,0.2-8.9,0.2c-5.9,0-9.1-0.2-9.9-0.2c-0.3,0-0.4,0.1-0.4,0.6v1.6c0,0.4,0.1,0.6,0.6,0.6
		h2.9c1.8,0,2.5,0.7,2.5,3.2v5.1c0,3.6-0.1,5.6-1.7,6.4c-2.4,1.3-5,1.8-9.5,1.8c-4.5,0-7.8-1.5-11.1-4.7c-4-4-6.3-11.1-6.3-19.4
		c0-5.8,2-11.3,5.7-15.7c1.4-1.8,3.2-3.2,5.3-4.1c2.1-0.9,4.3-1.4,6.6-1.3c2.2,0,4.3,0.4,6.3,1.2c2,0.8,3.8,2.1,5.3,3.6
		c2.5,2.8,4.4,6.1,5.6,9.6c0.1,0.4,0.3,0.6,0.7,0.6l1.7-0.3c0.3-0.1,0.3-0.4,0.3-1l-0.7-13.9c0-0.6-0.1-1-0.8-1
		c-0.4,0-0.6,0.2-1,0.7l-0.8,1.1c-0.4,0.6-0.8,0.8-1.7,0.1c-2.2-1.7-7.5-3.8-14.2-3.8c-8.4,0-14.8,2.4-19.8,6.8
		c-2.5,2.2-4.5,4.9-5.8,7.9c-1.4,3-2.1,6.3-2.1,9.6c0,8.2,2.1,14.2,6.4,18.9c4.7,5.7,13.2,8.1,20.1,8.1c6.9,0.2,13.7-1.4,19.8-4.6
		c0.7-0.3,1.1-0.6,1.1-1.1c0-0.6-0.3-1.3-0.3-2.2v-9.2c0-2,0.8-2.6,2.1-2.6h2.4c0.4,0,0.6-0.1,0.6-0.6v-1.7
		C430.7,107.1,430.5,107,430,107z"/>
	<path class="st0" d="M493.4,125.9h-2.8c-2.1,0-2.8-1-2.8-3.5c0-4-0.1-13.9-0.1-16.9v-7.5c0-2.2,0.1-11.7,0.1-12.7
		c0-2.4,0.1-3.6,2.2-3.6h2.5c0.7,0,0.8-0.3,0.8-0.7v-1.5c0-0.4-0.1-0.6-0.8-0.6c-1.1,0-3.9,0.2-9.2,0.2c-5.6,0-8.6-0.2-9.9-0.2
		c-0.5,0-0.6,0.2-0.6,0.6v1.6c0,0.4,0.1,0.6,0.6,0.6h3.2c1.5,0,1.8,1.3,1.9,3.5c0.1,0.8,0.4,10.5,0.4,13v2.1c0,0.8-0.3,1-1.4,1h-23
		c-0.6,0-0.8-0.3-0.8-1v-2.8c0-1.8,0.3-11,0.3-12c0.1-2.7,0.4-3.8,2.9-3.8h2.5c0.6,0,0.7-0.3,0.7-0.7v-1.5c0-0.4-0.1-0.6-0.7-0.6
		c-1.3,0-3.8,0.2-10,0.2c-6.8,0-9.1-0.2-10.3-0.2c-0.1,0-0.2,0-0.3,0c-0.1,0-0.2,0.1-0.2,0.2c-0.1,0.1-0.1,0.1-0.1,0.2
		c0,0.1,0,0.2,0,0.3V81c0,0.4,0.1,0.6,0.7,0.6h3.1c2.2,0,2.6,1,2.6,4.5c0,1,0.1,9.7,0.1,11.8v9c0,4.5-0.1,12.4-0.1,15.7
		c0,1.6-0.3,3.3-2,3.3h-3.6c-0.6,0-0.7,0.1-0.7,0.6v1.6c0,0.4,0.1,0.6,0.7,0.6c1.4,0,3.5-0.2,10.3-0.2c5.7,0,8.1,0.2,9.3,0.2
		c0.6,0,0.7-0.3,0.7-0.7v-1.6c0-0.4-0.1-0.5-0.7-0.5h-2.5c-1.5,0-2.3-0.7-2.4-2.4c-0.1-4.8-0.3-12.9-0.3-15.4v-3
		c0-0.6,0.2-0.9,1-0.9h22.7c1,0,1.5,0.2,1.5,0.8v2c0,1.3-0.1,12.4-0.3,15.7c-0.1,1.9-0.1,3.1-1.8,3.1h-3.8c-0.5,0-0.6,0.2-0.6,0.6
		v1.6c0,0.1,0,0.2,0,0.2c0,0.1,0.1,0.1,0.1,0.2c0.1,0.1,0.1,0.1,0.2,0.1c0.1,0,0.2,0.1,0.2,0.1c2,0,4.2-0.2,10.7-0.2
		c6,0,8.4,0.2,9.5,0.2c0.6,0,0.7-0.3,0.7-0.7v-1.6C494,126.1,493.9,125.9,493.4,125.9z"/>
	<path class="st0" d="M547.9,77.3c-0.1-0.8-0.3-1.1-0.7-1.1c-0.4,0-0.7,0.3-1.3,0.7c-1.5,0.9-3.2,1.6-5,1.8
		c-3.2,0.1-6.1,0.4-13.8,0.4h-3.8c-6.8,0-9.8-0.3-13.5-0.4c-0.9,0-1.7-0.1-2.6-0.4c-0.8-0.3-1.6-0.8-2.2-1.4
		c-0.4-0.4-0.7-0.7-1.1-0.7c-0.3,0-0.7,0.3-0.8,1.3l-3.3,12.8c-0.1,0.4,0,0.6,0.3,0.7l1.4,0.5c0.4,0.1,0.6-0.1,0.8-0.5
		c1.3-2.4,4-7,6.2-7.9c2.9-1,7.9-1,10.2-1h1.9v17.4c0,1.4,0,22.7-0.2,24.5c0,0.3-0.1,0.5-0.2,0.8c-0.1,0.2-0.3,0.5-0.5,0.6
		c-0.2,0.2-0.5,0.3-0.7,0.4c-0.3,0.1-0.5,0.1-0.8,0.1h-4c-0.3,0-0.5,0.1-0.5,0.6v1.6c0,0.5,0.1,0.6,0.6,0.6c1,0,3.9-0.2,11-0.2
		c7.5,0,9.8,0.2,10.4,0.2c0.7,0,0.7-0.3,0.7-0.7v-1.5c0-0.4-0.1-0.6-0.4-0.6h-4c-1.7,0-2.4-1.4-2.4-6.7V82.1h2
		c2.5,0,8.8,0.1,10.7,1.3c2,1.4,4.5,5.9,5.5,7.8c0.2,0.4,0.3,0.6,0.6,0.6l1.4-0.5c0.2-0.1,0.3-0.2,0.3-0.6
		C549.4,87.2,548,78.6,547.9,77.3z"/>
	<path class="st0" d="M593.7,98.6c-2.8-0.8-6.7-2.5-8.5-4.3c-1.8-1.8-2-3.9-2-6.3c0.1-2,1-3.8,2.5-5.1c1.5-1.3,3.4-2,5.3-1.9
		c1.4-0.1,2.7,0.1,4,0.7c1.3,0.5,2.4,1.3,3.3,2.3c2,2.1,3.4,4.6,4.3,7.4c0,0.1,0,0.1,0.1,0.2s0.1,0.1,0.2,0.2c0.1,0,0.1,0.1,0.2,0.1
		c0.1,0,0.2,0,0.2,0l1.1-0.4c0.1,0,0.2-0.1,0.3-0.2c0.1-0.1,0.1-0.2,0.1-0.3c0-0.7-1.1-10.4-1.1-11.6c0-0.7-0.1-1.1-0.6-1.1
		c-0.2,0-0.4,0-0.5,0.1c-0.2,0.1-0.3,0.2-0.5,0.3l-0.9,0.9c-0.2,0.2-0.4,0.3-0.7,0.4c-0.3,0-0.5,0-0.8-0.1c-2.8-1.2-5.8-1.7-8.8-1.7
		c-3.6-0.2-7.1,1-9.9,3.3c-1.5,1.1-2.8,2.6-3.6,4.3c-0.8,1.7-1.3,3.6-1.3,5.5c0,4.3,1.1,7.7,3.5,10c3,2.5,6.5,4.5,10.2,5.9
		c7.4,2.8,10.3,4.9,10.3,11.3c0,5.8-5.3,8.2-9.1,8.2c-1.8,0-3.6-0.4-5.2-1.3c-1.6-0.9-3-2.1-4-3.7c-1.5-2.4-2.4-5.2-2.5-8
		c0-0.4-0.1-0.6-0.4-0.6l-1.6-0.1c-0.3,0-0.3,0.1-0.4,0.6c-0.1,0.8-1.1,12.1-1.3,13c-0.1,0.9,0.3,1.1,0.8,1.1c0.6,0,0.8-0.1,1.3-0.8
		c0.4-0.7,0.7-1.3,1.1-1.3s0.8,0.3,1.7,0.8c2.8,2.1,6.1,3.3,11.8,3.3c9.2,0,14.8-7,14.8-15.5c0-4.7-1.3-7.6-3.5-10
		C601.1,101.3,597.8,99.9,593.7,98.6z"/>
	<path class="st0" d="M661.1,116c-0.2-0.2-0.5,0-0.8,0.5c-2.9,4.3-9,8.1-16.6,8.1c-3.3,0-7.4-0.6-12-5.4c-5.2-5.6-6.4-13.8-6.4-18.1
		c0-10,4.6-20.1,15.7-20.1c2.3,0,4.5,0.4,6.6,1.3c2.1,0.9,4,2.2,5.5,3.8c2.4,2.6,4.3,5.7,5.4,9.1c0.2,0.6,0.4,0.8,0.8,0.7l1.3-0.4
		c0.3-0.1,0.3-0.3,0.3-0.7c-0.3-2.1-1.7-13.2-1.7-14.5c0-1-0.1-1.1-1-1.1c-0.9,0-1,0-1.1,0.4l-0.6,1.8c-0.1,0.6-0.4,0.6-1.4,0
		c-4.4-2.2-9.2-3.4-14.1-3.3c-8.4,0-14.4,3.3-18.1,7.4c-4.7,5.1-7.2,11.8-7.1,18.7c0,6.1,2.4,14.2,7.5,18.8
		c4.3,3.9,9.3,6.5,18.2,6.5c9.9,0,16.6-5.7,20.8-11.7c0.1-0.1,0.1-0.2,0.1-0.4c0-0.1-0.1-0.2-0.2-0.3L661.1,116z"/>
	<path class="st0" d="M725,125.9h-2.8c-2.1,0-2.8-1-2.8-3.5c0-4-0.1-13.9-0.1-16.9v-7.5c0-2.2,0.1-11.7,0.1-12.7
		c0-2.4,0.1-3.6,2.2-3.6h2.5c0.7,0,0.8-0.3,0.8-0.7v-1.5c0-0.4-0.1-0.6-0.8-0.6c-1.1,0-3.9,0.2-9.2,0.2c-5.6,0-8.6-0.2-9.9-0.2
		c-0.5,0-0.6,0.2-0.6,0.6v1.6c0,0.4,0.1,0.6,0.6,0.6h3.2c1.5,0,1.8,1.3,1.9,3.5c0.1,0.8,0.4,10.5,0.4,13v2.1c0,0.8-0.3,1-1.4,1h-23
		c-0.6,0-0.8-0.3-0.8-1v-2.8c0-1.8,0.3-11,0.4-12c0.1-2.7,0.3-3.8,2.9-3.8h2.5c0.6,0,0.7-0.3,0.7-0.7v-1.5c0-0.4-0.1-0.6-0.7-0.6
		c-1.3,0-3.8,0.2-10,0.2c-6.8,0-9-0.2-10.3-0.2c-0.1,0-0.2,0-0.3,0c-0.1,0-0.2,0.1-0.2,0.2c-0.1,0.1-0.1,0.1-0.1,0.2
		c0,0.1,0,0.2,0,0.3V81c0,0.4,0.1,0.6,0.7,0.6h3.1c2.2,0,2.7,1,2.7,4.5c0,1,0.1,9.7,0.1,11.8v9c0,4.5-0.1,12.4-0.1,15.7
		c0,1.6-0.3,3.3-2,3.3h-3.6c-0.6,0-0.7,0.1-0.7,0.6v1.6c0,0.4,0.1,0.6,0.7,0.6c1.4,0,3.5-0.2,10.3-0.2c5.7,0,8.1,0.2,9.3,0.2
		c0.6,0,0.7-0.3,0.7-0.7v-1.6c0-0.4-0.1-0.5-0.7-0.5h-2.5c-1.5,0-2.3-0.7-2.4-2.4c-0.1-4.8-0.3-12.9-0.3-15.4v-3
		c0-0.6,0.2-0.9,1-0.9H709c1,0,1.5,0.2,1.5,0.8v2c0,1.3-0.1,12.4-0.3,15.7c-0.1,1.9-0.1,3.1-1.8,3.1h-3.8c-0.5,0-0.6,0.2-0.6,0.6
		v1.6c0,0.1,0,0.2,0,0.2c0,0.1,0.1,0.1,0.1,0.2c0.1,0.1,0.1,0.1,0.2,0.1c0.1,0,0.1,0.1,0.2,0.1c2,0,4.2-0.2,10.7-0.2
		c6,0,8.4,0.2,9.5,0.2c0.6,0,0.7-0.3,0.7-0.7v-1.6C725.5,126.1,725.4,125.9,725,125.9z"/>
	<path class="st0" d="M775.5,83.7c-4.6-3.8-10.5-5.8-16.4-5.6c-6,0-13.5,1.4-19.6,8.9c-4,4.9-6.3,11-6.4,17.3
		c0,10,5.2,17.6,10.2,20.6c4.8,2.9,10.2,4.5,15.7,4.6c10.4,0,16.4-4.3,20.9-9.9c3.4-4.4,5.2-9.8,5.2-15.3c0.1-3.9-0.7-7.8-2.4-11.4
		C781,89.3,778.5,86.1,775.5,83.7z M759.5,126.4c-5.9,0-17-6.4-17-24.5c0-5.6,2-12.7,6.3-16.9c4.7-4.6,8.8-3.9,10-3.9
		c6.7,0,17,8.6,17,23.8C775.7,110.9,773.5,126.4,759.5,126.4z"/>
	<path class="st0" d="M836.8,83.7c-4.6-3.8-10.5-5.8-16.4-5.6c-6,0-13.5,1.4-19.6,8.9c-4,4.9-6.3,11-6.4,17.3
		c0,10,5.2,17.6,10.2,20.6c4.8,2.9,10.2,4.5,15.7,4.6c10.4,0,16.4-4.3,20.9-9.9c3.4-4.4,5.2-9.8,5.2-15.3c0.1-3.9-0.7-7.8-2.4-11.4
		C842.3,89.3,839.9,86.1,836.8,83.7z M820.8,126.4c-5.8,0-17-6.4-17-24.5c0-5.6,2-12.7,6.3-16.9c4.7-4.6,8.8-3.9,10-3.9
		c6.7,0,17,8.6,17,23.8C837.1,110.9,834.9,126.4,820.8,126.4L820.8,126.4z"/>
	<path class="st0" d="M896,113.7c-0.4-0.1-0.6,0-0.8,0.3c-1,2.6-5.4,11-9.3,11.6c-2.8,0.4-7.8,0.4-11.7,0.4h-3.9
		c-0.3-3-0.3-18-0.3-19.3v-6c0-4.9,0.3-15.3,0.3-16.3c0-1.9,0.3-2.6,2.4-2.6h3.8c0.6,0,0.7-0.3,0.7-0.6v-1.6c0-0.4-0.1-0.6-0.7-0.6
		s-3.5,0.2-11,0.2c-6.4,0-8.9-0.2-9.6-0.2c-0.4,0-0.6,0.1-0.6,0.6v1.6c0,0.2,0,0.3,0.1,0.4c0.1,0.1,0.3,0.2,0.4,0.2h2.9
		c1.8,0,2.1,0.7,2.2,2.5c0.1,1.2,0.3,8.6,0.3,13v3.9c0,4.2-0.3,21.6-0.3,22.8c0,0.9-0.4,1.9-2.9,1.9h-2.8c-0.4,0-0.4,0.1-0.4,0.6
		v1.6c0,0.5,0,0.6,0.6,0.6c0.8,0,3.3-0.2,9.6-0.2c7.1,0,27.2,0.1,29,0.2c0.4-1.9,3.2-13.4,3.5-13.9c0-0.4,0-0.6-0.1-0.7L896,113.7z"
		/>
	<path class="st0" d="M931.1,104.1c-2.6-2.8-6-4.2-10-5.4c-2.8-0.8-6.7-2.5-8.5-4.3c-1.8-1.8-2-3.9-2-6.3c0.1-2,1-3.8,2.5-5.1
		c1.5-1.3,3.4-2,5.3-1.9c1.3-0.1,2.7,0.1,3.9,0.7c1.3,0.5,2.4,1.3,3.3,2.3c2,2.1,3.4,4.6,4.3,7.4c0,0.1,0,0.1,0.1,0.2
		c0,0.1,0.1,0.1,0.2,0.2c0.1,0,0.1,0.1,0.2,0.1c0.1,0,0.2,0,0.2,0l1.1-0.4c0.1,0,0.2-0.1,0.3-0.2c0.1-0.1,0.1-0.2,0.1-0.3
		c0-0.7-1.1-10.4-1.1-11.6c0-0.7-0.1-1.1-0.6-1.1c-0.2,0-0.4,0-0.5,0.1c-0.2,0.1-0.3,0.2-0.5,0.3l-0.9,0.9c-0.2,0.2-0.4,0.3-0.7,0.4
		c-0.3,0-0.5,0-0.8-0.2c-2.8-1.2-5.8-1.7-8.8-1.7c-3.6-0.2-7.1,1-9.9,3.3c-1.5,1.1-2.8,2.6-3.6,4.3c-0.8,1.7-1.3,3.6-1.2,5.5
		c0,4.3,1.1,7.7,3.5,10c3,2.5,6.5,4.5,10.2,5.9c7.4,2.8,10.3,4.9,10.3,11.3c0,5.8-5.3,8.2-9.1,8.2c-1.8,0-3.6-0.4-5.2-1.3
		c-1.6-0.9-3-2.1-4-3.7c-1.6-2.4-2.5-5.1-2.6-7.9c0-0.4-0.1-0.6-0.4-0.6l-1.5-0.1c-0.3,0-0.3,0.1-0.4,0.6c-0.1,0.8-1.1,12.1-1.3,13
		c-0.1,0.9,0.3,1.1,0.8,1.1c0.6,0,0.8-0.1,1.3-0.8c0.4-0.7,0.7-1.3,1.1-1.3s0.8,0.3,1.7,0.8c2.8,2.1,6.1,3.3,11.8,3.3
		c9.2,0,14.8-7,14.8-15.5C934.6,109.4,933.4,106.4,931.1,104.1z"/>
</g>
<g>
	<path class="st1" d="M173.5,57.5c0,18.9-2.8,46.8-10.9,68.4c-13.8,36.7-38,65.5-72.2,85.5c-0.5,0.3-1,0.4-1.5,0.4
		c-0.5,0-1.1-0.1-1.5-0.4c-34.1-20-58.4-48.7-72.2-85.4c-8-21.7-10.8-49.5-10.8-68.3v-51c0-0.3,0.1-0.6,0.2-0.8C4.6,5.4,4.8,5.2,5,5
		c0.2-0.2,0.4-0.4,0.7-0.5C6,4.4,6.2,4.4,6.5,4.4h164.8c0.3,0,0.6,0.1,0.8,0.2c0.3,0.1,0.5,0.3,0.7,0.5c0.2,0.2,0.4,0.4,0.5,0.7
		c0.1,0.3,0.2,0.5,0.2,0.8V57.5z"/>
	<path class="st2" d="M75.7,31.8l6.4,1.2c1,0.2,1.9,0.7,2.6,1.4c0.7,0.7,1.2,1.6,1.4,2.6l1.2,6.5c0.1,0.4,0.3,0.7,0.6,0.9
		c0.3,0.2,0.7,0.4,1,0.4c0.4,0,0.7-0.1,1-0.4c0.3-0.2,0.5-0.6,0.6-0.9l1.3-6.5c0.2-1,0.7-1.9,1.4-2.6c0.7-0.7,1.6-1.2,2.6-1.4
		l6.4-1.2c0.4-0.1,0.7-0.3,0.9-0.6c0.2-0.3,0.4-0.7,0.4-1c0-0.4-0.1-0.7-0.4-1c-0.2-0.3-0.6-0.5-0.9-0.6l-6.4-1.2
		c-1-0.2-1.9-0.7-2.6-1.4c-0.7-0.7-1.2-1.6-1.4-2.6L90.5,17c-0.1-0.4-0.3-0.7-0.6-0.9c-0.3-0.2-0.7-0.4-1-0.4c-0.4,0-0.7,0.1-1,0.4
		c-0.3,0.2-0.5,0.6-0.6,0.9l-1.3,6.5c-0.2,1-0.7,1.9-1.4,2.6c-0.7,0.7-1.6,1.2-2.6,1.4l-6.4,1.2c-0.4,0.1-0.7,0.3-0.9,0.6
		c-0.2,0.3-0.4,0.7-0.4,1c0,0.4,0.1,0.7,0.4,1C75,31.6,75.3,31.8,75.7,31.8z"/>
	<path class="st2" d="M35.6,22l1.6,0.4c0.5,0.1,1,0.4,1.4,0.8c0.4,0.4,0.6,0.9,0.8,1.4l0.4,1.6c0,0.2,0.2,0.4,0.3,0.5
		c0.2,0.1,0.4,0.2,0.6,0.2c0.2,0,0.4-0.1,0.6-0.2c0.2-0.1,0.3-0.3,0.3-0.5l0.4-1.6c0.1-0.5,0.4-1,0.8-1.4c0.4-0.4,0.9-0.7,1.4-0.8
		l1.6-0.4c0.2-0.1,0.4-0.2,0.5-0.3c0.1-0.2,0.2-0.4,0.2-0.6c0-0.2-0.1-0.4-0.2-0.6c-0.1-0.2-0.3-0.3-0.5-0.3l-1.6-0.4
		c-0.5-0.1-1-0.4-1.4-0.8c-0.4-0.4-0.7-0.9-0.8-1.4l-0.3-1.7c0-0.2-0.2-0.4-0.3-0.5c-0.2-0.1-0.4-0.2-0.6-0.2
		c-0.2,0-0.4,0.1-0.6,0.2c-0.2,0.1-0.3,0.3-0.3,0.5l-0.4,1.7c-0.1,0.5-0.4,1-0.8,1.4c-0.4,0.4-0.9,0.7-1.4,0.8l-1.6,0.4
		c-0.2,0-0.4,0.2-0.5,0.3c-0.1,0.2-0.2,0.4-0.2,0.6c0,0.2,0.1,0.4,0.2,0.6C35.1,21.8,35.3,21.9,35.6,22z"/>
	<path class="st2" d="M49.2,42.2l2,0.4c0.6,0.1,1.2,0.5,1.7,0.9c0.5,0.5,0.8,1,0.9,1.7l0.4,2c0.1,0.3,0.2,0.5,0.4,0.7
		c0.2,0.2,0.5,0.3,0.7,0.3c0.3,0,0.5-0.1,0.7-0.3c0.2-0.2,0.3-0.4,0.4-0.7l0.4-2c0.1-0.6,0.5-1.2,0.9-1.7c0.5-0.5,1-0.8,1.7-0.9
		l2-0.4c0.3,0,0.5-0.2,0.7-0.4c0.2-0.2,0.3-0.5,0.3-0.7c0-0.3-0.1-0.5-0.3-0.7c-0.2-0.2-0.4-0.3-0.7-0.4l-2-0.4
		c-0.6-0.1-1.2-0.5-1.7-0.9s-0.8-1.1-0.9-1.7l-0.4-2c0-0.3-0.2-0.5-0.4-0.7c-0.2-0.2-0.5-0.3-0.7-0.3c-0.3,0-0.5,0.1-0.7,0.3
		c-0.2,0.2-0.3,0.4-0.4,0.7l-0.4,2c-0.1,0.6-0.5,1.2-0.9,1.7c-0.5,0.5-1,0.8-1.7,0.9l-2,0.4c-0.3,0.1-0.5,0.2-0.7,0.4
		c-0.2,0.2-0.3,0.5-0.3,0.7c0,0.3,0.1,0.5,0.3,0.7C48.7,42,48.9,42.2,49.2,42.2z"/>
	<path class="st2" d="M18,35.8l1.3,0.3c0.4,0.1,0.8,0.3,1.1,0.6c0.3,0.3,0.5,0.7,0.6,1.1l0.3,1.3c0,0.2,0.1,0.3,0.3,0.4
		c0.1,0.1,0.3,0.2,0.5,0.2c0.2,0,0.3-0.1,0.5-0.2c0.1-0.1,0.2-0.3,0.3-0.4l0.3-1.3c0.1-0.4,0.3-0.8,0.6-1.1c0.3-0.3,0.7-0.5,1.1-0.6
		l1.3-0.3c0.2,0,0.3-0.1,0.4-0.3c0.1-0.1,0.2-0.3,0.2-0.5c0-0.2-0.1-0.3-0.2-0.5c-0.1-0.1-0.3-0.2-0.4-0.3l-1.3-0.3
		c-0.4-0.1-0.8-0.3-1.1-0.6c-0.3-0.3-0.5-0.7-0.6-1.1L22.8,31c0-0.2-0.1-0.3-0.3-0.4c-0.1-0.1-0.3-0.2-0.5-0.2
		c-0.2,0-0.3,0.1-0.5,0.2c-0.1,0.1-0.2,0.3-0.3,0.4l-0.3,1.3c-0.1,0.4-0.3,0.8-0.6,1.1c-0.3,0.3-0.7,0.5-1.1,0.6l-1.3,0.3
		c-0.2,0-0.3,0.1-0.4,0.3c-0.1,0.1-0.2,0.3-0.2,0.5c0,0.2,0.1,0.3,0.2,0.5C17.7,35.7,17.9,35.8,18,35.8z"/>
	<path class="st2" d="M9.6,58.9v0.6c0,18.1,2.7,44.7,10.4,65.2c13.1,35,36.2,62.4,68.7,81.4c0.1,0,0.2,0.1,0.2,0.1s0.2,0,0.2-0.1
		c32.5-19,55.7-46.4,68.7-81.4c7.6-20.6,10.4-47.2,10.4-65.2v-0.6H9.6z"/>
	<path class="st2" d="M132.1,22l1.6,0.4c0.5,0.1,1,0.4,1.4,0.8c0.4,0.4,0.7,0.9,0.8,1.4l0.4,1.6c0,0.2,0.2,0.4,0.3,0.5
		c0.2,0.1,0.4,0.2,0.6,0.2c0.2,0,0.4-0.1,0.6-0.2c0.2-0.1,0.3-0.3,0.3-0.5l0.4-1.6c0.1-0.5,0.4-1,0.8-1.4s0.9-0.7,1.4-0.8l1.6-0.4
		c0.2-0.1,0.4-0.2,0.5-0.3c0.1-0.2,0.2-0.4,0.2-0.6c0-0.2-0.1-0.4-0.2-0.6c-0.1-0.2-0.3-0.3-0.5-0.3l-1.6-0.4
		c-0.5-0.1-1-0.4-1.4-0.8c-0.4-0.4-0.7-0.9-0.8-1.4l-0.4-1.6c0-0.2-0.2-0.4-0.3-0.5c-0.2-0.1-0.4-0.2-0.6-0.2
		c-0.2,0-0.4,0.1-0.6,0.2c-0.2,0.1-0.3,0.3-0.3,0.5l-0.4,1.6c-0.1,0.5-0.4,1-0.8,1.4c-0.4,0.4-0.9,0.7-1.4,0.8l-1.6,0.4
		c-0.2,0-0.4,0.2-0.5,0.3c-0.1,0.2-0.2,0.4-0.2,0.6c0,0.2,0.1,0.4,0.2,0.6C131.7,21.8,131.9,21.9,132.1,22z"/>
	<path class="st2" d="M116.4,42.2l2,0.4c0.6,0.1,1.2,0.5,1.7,0.9c0.5,0.5,0.8,1,0.9,1.7l0.4,2c0,0.3,0.2,0.5,0.4,0.7
		c0.2,0.2,0.5,0.3,0.7,0.3c0.3,0,0.5-0.1,0.7-0.3c0.2-0.2,0.3-0.4,0.4-0.7l0.4-2c0.1-0.6,0.5-1.2,0.9-1.7c0.5-0.5,1-0.8,1.7-0.9
		l2-0.4c0.3,0,0.5-0.2,0.7-0.4c0.2-0.2,0.3-0.5,0.3-0.7c0-0.3-0.1-0.5-0.3-0.7c-0.2-0.2-0.4-0.3-0.7-0.4l-2-0.4
		c-0.6-0.1-1.2-0.5-1.7-0.9c-0.5-0.5-0.8-1.1-0.9-1.7l-0.4-2c-0.1-0.3-0.2-0.5-0.4-0.7c-0.2-0.2-0.5-0.3-0.7-0.3
		c-0.3,0-0.5,0.1-0.7,0.3c-0.2,0.2-0.3,0.4-0.4,0.7l-0.4,2c-0.1,0.6-0.5,1.2-0.9,1.7c-0.5,0.5-1,0.8-1.7,0.9l-2,0.4
		c-0.3,0.1-0.5,0.2-0.7,0.4c-0.2,0.2-0.3,0.5-0.3,0.7c0,0.3,0.1,0.5,0.3,0.7C115.9,42,116.1,42.2,116.4,42.2z"/>
	<path class="st2" d="M151.8,35.8l1.3,0.3c0.4,0.1,0.8,0.3,1.1,0.6c0.3,0.3,0.5,0.7,0.6,1.1l0.3,1.3c0,0.2,0.1,0.3,0.3,0.4
		c0.1,0.1,0.3,0.2,0.5,0.2c0.2,0,0.3-0.1,0.5-0.2c0.1-0.1,0.2-0.3,0.3-0.4l0.3-1.3c0.1-0.4,0.3-0.8,0.6-1.1c0.3-0.3,0.7-0.5,1.1-0.6
		l1.3-0.3c0.2,0,0.3-0.1,0.4-0.3c0.1-0.1,0.2-0.3,0.2-0.5c0-0.2-0.1-0.3-0.2-0.5c-0.1-0.1-0.3-0.2-0.4-0.3l-1.3-0.3
		c-0.4-0.1-0.8-0.3-1.1-0.6c-0.3-0.3-0.5-0.7-0.6-1.1l-0.3-1.3c0-0.2-0.1-0.3-0.3-0.4c-0.1-0.1-0.3-0.2-0.5-0.2
		c-0.2,0-0.3,0.1-0.5,0.2c-0.1,0.1-0.2,0.3-0.3,0.4l-0.3,1.3c-0.1,0.4-0.3,0.8-0.6,1.1c-0.3,0.3-0.7,0.5-1.1,0.6l-1.3,0.3
		c-0.2,0-0.3,0.1-0.4,0.3c-0.1,0.1-0.2,0.3-0.2,0.5c0,0.2,0.1,0.3,0.2,0.5C151.4,35.7,151.6,35.8,151.8,35.8z"/>
	<path class="st3" d="M134.8,106.6c0,0,0.1,0,0.1,0c11-0.9,14.7-7.1,14.1-16c-0.2-2.7-0.9-5.4-2.3-7.8c-0.3-0.6-0.5-1.1-0.7-1.7
		c-0.1-0.3-0.1-0.6-0.1-0.7c-0.3-2.1,0.3-2.7,0.8-2.8c0,0,0.1,0,0.1-0.1c0,0,0.1-0.1,0.1-0.1c0,0,0-0.1,0-0.1c0,0,0-0.1-0.1-0.1
		c-0.3-0.3-0.7-0.5-1.1-0.6c-0.4-0.1-0.9-0.1-1.3,0.1c-2,0.5-1.3,3.5-1.3,3.5s-2.3-2.6-4.6-3.3c-1.4-0.4-3.3,0.1-3.9-0.7
		c-0.2-0.2-0.3-0.4-0.3-0.7c0-0.2,0-0.5,0-0.7c0,0,0-0.1,0-0.1c0,0,0-0.1-0.1-0.1c0,0-0.1-0.1-0.1-0.1s-0.1,0-0.1,0
		c-0.3,0.1-0.5,0.3-0.8,0.5c-0.2,0.2-0.4,0.5-0.5,0.7c-0.9,2,2.7,3,1.5,4c-0.5,0.5-3.2,0-5.3-1.4c-5.5-3.8-7.6,0.3-8.3,2.2
		c0,0.1,0,0.1,0,0.2c0,0.1,0.1,0.1,0.1,0.2c0.1,0,0.1,0.1,0.2,0.1c0.1,0,0.2,0,0.2-0.1c0.3-0.2,0.6-0.4,0.9-0.6
		c0.5-0.3,1-0.4,1.6-0.4c0.5,0,1.1,0.2,1.5,0.5c0.3,0.2,0.9,1.6,0.6,1.8c-1.9,0.5-3.8,1.2-5.6,2.1c-4.2,2.4-7.6,2.7-8.8,1.5
		c2-2.4,1.4-3,1-5.9c-0.2-1.6-0.2-2.6,1.8-2.4c0.1,0,0.2-2.4-3.1-2.1c0,0-0.1,0-0.1,0c0,0,0,0-0.1,0c0,0,0,0,0-0.1c0,0,0,0,0-0.1
		c0-0.6,1.7-4.2-2.1-5.7c-0.6-0.3-1.3-0.4-2-0.4c-0.7,0-1.4,0.1-2.1,0.4c0,0-0.1,0-0.1,0.1c0,0,0,0.1,0,0.1c0,0.1,0,0.1,0,0.1
		c0,0,0.1,0.1,0.1,0.1c0.9,0.3,1.7,0.8,2.4,1.3c0.4,0.4,0.9,1.9-0.2,1.7c-0.7-0.1-1.2-1-2.9-1.9c-3.3-1.8-5.4-1.2-6.4-1.5
		c-0.6-0.1-1.2-0.4-1.6-0.8c-0.5-0.4-0.8-1-1-1.6c0,0,0-0.1-0.1-0.1c0,0-0.1-0.1-0.1-0.1c0,0-0.1,0-0.1,0c0,0-0.1,0-0.1,0.1
		c-0.6,0.5-1,1.2-1.1,2c-0.1,0.9,0.1,1.8,0.6,2.6c0.5,0.8,1.3,1.3,2.2,1.6c1.9,0.6,2.5,1.1,2.6,2c0.1,1.1-1.5,0.6-2.1,0.2
		c-0.4-0.3-0.9-0.6-1.4-0.7c-0.2,0-0.4,0.2-0.3,0.6c0,1,0.3,1.9,0.7,2.8c1.6,2.1,2.5,1.2,3.2,1.8c1.1,0.9-0.6,3.1,1.9,6.7
		c2.7,3.7,9.8,5.3,17.3,2.8c1.9-0.6,7.2-2.7,8.4-1.7c0.5,0.4,1.8,3.4-3.4,3.9c-1,0.1-2,0-3-0.2c-0.1,0-0.1,0-0.2,0
		c-0.1,0-0.1,0-0.1,0.1c0,0-0.1,0.1-0.1,0.1s0,0.1,0,0.2c0.1,0.4,0.3,0.7,0.5,1c0.2,0.3,0.5,0.6,0.9,0.8c0.9,0.6,2,0.9,3.1,1.1
		c1.1,0.1,2.2,0,3.2-0.3c4.6-1.3,3.7-2.9,5-3c0.1,0,0.1,0,0.1,0c0,0,0.1,0.1,0.1,0.1c0.1,0.8,0.3,1.5,0.8,2.2
		c0.6,0.9,1.7,1.3,3.2,1.1c0.9-0.1,1.7-0.5,2.3-1.2c0,0,0.1-0.1,0.1-0.1c0-0.1,0-0.1,0-0.1c0,0-0.1-0.1-0.1-0.1c0,0-0.1,0-0.1,0
		c-0.5,0.1-1.1,0.2-1.6,0.2c-1.5-0.1-1.7-4,1-2.9c3.6,1.3,4.7-0.9,6,1.3c1.7,2.8,0.9,11.2-8.9,11.9c-6,0.4-9.6-4.6-16.9-2.4
		c-0.4,0.1-0.8,0.2-1.2,0.2c-0.4,0-0.8-0.2-1.1-0.4c-1-0.4-6.1-2.5-14.9-0.6c-3.4,0.7-8,2.2-9.2,2.2c-1.2,0-2-0.3-1.7-1.8
		c0.2-0.7,1.1-0.9,1.8-1c0.1,0,0.1,0,0.2-0.1c0.1,0,0.1-0.1,0.1-0.2c0-0.1,0.1-0.1,0.1-0.2c0-0.1,0-0.1,0-0.2
		c-0.8-1.5-2-0.8-3.5-1.4c-0.4-0.2-0.7-0.5-0.9-0.8c-0.2-0.3-0.3-0.7-0.4-1.2c0,0,0,0,0-0.1c0,0,0,0,0.1,0c0,0,0,0,0.1,0
		c0,0,0,0,0.1,0c0.9,0.2,1.8,0.2,2.7-0.1c0.6-0.2,1-0.5,1.4-0.9c0.4-0.4,0.6-1,0.7-1.6c0-0.1,0-0.1,0-0.2c0-0.1,0-0.1-0.1-0.2
		c0-0.1-0.1-0.1-0.2-0.1c-0.1,0-0.1-0.1-0.2-0.1c-0.4,0-0.8,0-1.2-0.1c-0.4-0.1-0.7-0.4-1-0.6c-0.6-0.7-1.1-1.4-1.5-2.2
		c0,0,0-0.1,0-0.1c0,0,0-0.1,0-0.1c0,0,0-0.1,0.1-0.1c0,0,0.1,0,0.1,0c0.5,0.1,1.1,0,1.6-0.1c0.5-0.1,1-0.5,1.3-0.9
		c0.3-0.5,0.4-1,0.3-1.6c0,0,0-0.1-0.1-0.1c0,0-0.1,0-0.1,0c-0.6,0-1.1-0.2-1.6-0.4c-0.5-0.3-0.9-0.7-1.2-1.1
		c-0.3-0.6-0.6-1.2-0.8-1.8c0,0,0-0.1,0-0.1c0,0,0-0.1,0-0.1c0,0,0,0,0.1-0.1c0,0,0.1,0,0.1,0c0.5,0.1,1,0.1,1.5,0
		c0.2-0.1,0.5-0.3,0.6-0.4c0.2-0.2,0.3-0.4,0.4-0.7c0-0.1,0-0.1,0-0.2c0-0.1,0-0.1,0-0.2c0-0.1-0.1-0.1-0.1-0.2c0,0-0.1-0.1-0.2-0.1
		c-1-0.3-2-0.9-2.8-1.7c-1.3-1.7-1.2-4.1-4.2-4.6c0,0-0.1,0-0.1-0.1c0,0,0-0.1,0-0.1l0.1-3.3c0-0.1,0-0.2-0.1-0.3
		c-0.1-0.1-0.2-0.1-0.3-0.1c-2,0.1-3.8,0.9-5.2,2.3c0,0-0.1,0-0.1,0c0,0-0.1,0-0.1,0c-1.2-0.9-6.2-1.7-11.5,1.1L66,74.3
		c-0.2,0.5-0.4,0.9-0.7,1.4c-0.4,0.5-1,0.9-2.9,1.2c-2.7,0.5-2.8,1.3-2.6,2c0.4,1-0.9,2.7,1.8,5.6c0.4,0.4,2.2-0.6,4-0.9
		c1.2-0.2,2.2,0.5,2.2,2.2c-3.8,0.3-7.6,0.9-11.3,2c-1.1,0.3-2.2,0.3-2.7-0.9c-0.6-1.6,0.5-2.9-0.3-3c-0.6,0-1.6,0.8-2.2,2.7
		c-0.3,0.7-0.3,1.4-0.1,2.1c0.2,0.7,0.7,1.3,1.3,1.7c0.3,0.2,0.7,0.3,1.1,0.4c2.6,0.6,6-1.6,9.6-2.7c1.3-0.4,2.7-0.6,4.1-0.6
		c-0.5,0.6-1.1,1-1.8,1.3c-0.8,0.4-1.8,0.5-2.6,0.3c-0.8,0.1-0.8,1.5,0.3,3.5c0,0,0,0.1,0,0.1c0,0,0,0.1,0,0.1c0,0,0,0.1-0.1,0.1
		c0,0-0.1,0-0.1,0c-0.9,0.1-1.7,0.4-2.5,0.8c-1,0.6-1.8,1.7-2.4,1.6c-0.6-0.1-0.8-0.9-0.6-1.4c0.1-0.3,0-0.5-0.4-0.4
		c-0.5,0.1-0.9,0.4-1.2,0.8c-0.3,0.4-0.5,0.8-0.6,1.3c0,0.7,0.2,1.4,0.6,1.9c0,0,0,0.1,0,0.1c0,0,0,0.1,0,0.1c0,0-0.1,0.1-0.1,0.1
		c0,0-0.1,0-0.1,0c-3.6-0.9-7-2.6-9.9-5c-1-0.8-3.2-2.7-3.1-4.2c0.1-0.8,0.3-1.5,0.7-2.2c0.3-0.5,1.9-4.1,0-6.7
		c-0.6-0.9-1.5-1.5-2.6-1.8c-1-0.2-2-0.2-2.9,0c-1.2,0.2-1.6,0.9-1,1c0.6,0.1,2.2,0,2.5,0.6c0.1,0.1,0.1,0.2,0.1,0.3
		c0,0.1,0,0.2,0,0.4c0,0.1-0.1,0.2-0.2,0.3c-0.1,0.1-0.2,0.1-0.3,0.2c-0.3,0.1-0.5,0.3-0.7,0.4c-0.2,0.2-0.3,0.4-0.4,0.7
		C38,82.2,38,82.5,38,82.7c0,0.3,0.1,0.5,0.2,0.8c0.4,1.1,0,1.8-0.7,2c-0.7,0.2-1.2-1.3-1.2-1.3c-0.1-0.8-0.4-1.7-0.8-2.4
		c-0.4-0.6-0.9-1.1-1.5-1.5c-0.6-0.4-1.3-0.6-2-0.6c-1.2-0.1-2.4,0.2-3.4,0.9c-1,0.7-1.7,1.6-2.1,2.8c0,0-0.3,1.3,1.3,0.1
		c0,0,1.3-1.1,2.3-0.3c0.4,0.3,0,0.9-0.2,1.4c-0.1,0.2-0.2,0.4-0.2,0.6c0,0.2,0,0.5,0,0.7c0.1,0.2,0.1,0.4,0.3,0.6
		c0.1,0.2,0.3,0.3,0.5,0.5c0.7,0.4,0.9,1.1-0.2,0.9c-1-0.3-3.9,0-5.6,3.5c-0.8,1.5-0.7,5.1,1.2,5.3c0.5,0.1-0.5-1.9-0.3-2.8
		c0.2-0.8,1-1.4,1.8-0.1c0,0,1.4,2.2,3.3,0.5c0.1-0.1,0.3-0.2,0.4-0.3c0.2-0.1,0.3-0.1,0.5-0.1c0.2,0,0.3,0.1,0.5,0.2
		c0.2,0.1,0.3,0.2,0.4,0.4c0.1,0.1,0.2,0.2,0.2,0.4c0,0.1,0.1,0.3,0.1,0.4c0,0.2-0.1,0.3-0.1,0.4c-0.1,0.1-0.2,0.3-0.3,0.4
		c-1.2,1.2,0.7,2.3,0.9,3c0.2,0.7-0.2,2-2.8,0.6c0,0-1.1-0.4-1.1,0.1c0.5,1.1,1.4,1.9,2.5,2.3c0.8,0.3,1.6,0.4,2.5,0.2
		c0.8-0.1,1.6-0.4,2.3-0.9c0.8-0.8,1.3-1.8,1.6-2.9c0,0,0-0.1,0.1-0.1c0,0,0.1,0,0.1,0c0,0,0.1,0,0.1,0c0,0,0.1,0.1,0.1,0.1
		c0.7,1.7,3.1,6,7.2,6.8c0.3,0.1,0.5,0.2,0.7,0.5c0.2,0.2,0.2,0.5,0.2,0.8c0,0.3-0.1,0.6-0.3,0.8c-0.2,0.2-0.5,0.3-0.7,0.4
		c-0.4,0.1-0.8,0.2-1.3,0.2c-0.1,0-0.2,0-0.2,0.1c-0.1,0-0.1,0.1-0.1,0.2c0,0.1,0,0.2,0,0.2c0,0.1,0.1,0.1,0.1,0.2
		c0.8,0.9,2.6,1.9,5.3,0c0,0,0.5,2.5-0.6,3.3c-0.7,0.5-1.6,0.7-2.4,0.7c-0.1,0-0.1,0-0.2,0c-0.1,0-0.1,0.1-0.2,0.1
		c0,0-0.1,0.1-0.1,0.2c0,0.1,0,0.1,0,0.2c0.1,0.6,0.4,1.1,0.8,1.5c0.4,0.4,0.9,0.7,1.5,0.8c1.1,0.4,2.3,0.4,3.4,0
		c1.1-0.3,2.1-1,2.8-1.9c0.2,0.6,0.3,1.3,0.2,1.9c-0.1,0.6-0.4,1.2-0.8,1.7c-0.4,0.5-1,0.8-1.6,1c-0.6,0.2-1.3,0.1-1.9-0.1
		c-0.1,0-0.2,0-0.2,0c-0.1,0-0.1,0.1-0.2,0.1c0,0.1-0.1,0.1-0.1,0.2c0,0.1,0,0.2,0,0.2c0.5,1,1.7,2.5,5.2,2.1
		c0.6-0.1,1.2-0.3,1.7-0.6c0.5-0.3,1-0.7,1.3-1.2c0,0,0.1-0.1,0.1-0.1c0,0,0.1,0,0.1,0c0,0,0.1,0,0.1,0.1c0,0,0,0.1,0,0.1
		c-0.4,2.2-1.9,7.3-6.6,8.9c-1.5,0.5-3.8,0.8-5.3-0.3c-0.5-0.3-2.6-3.3-5.7-2.9c-1,0.1-1.9,0.6-2.6,1.4c-0.6,0.7-1,1.6-1.2,2.5
		c-0.3,1.1,0.1,1.7,0.5,1.3c0.4-0.4,0.9-1.9,1.6-1.8c0.7,0,0.8,0.4,0.8,0.8c0.1,1.4,0.6,2.3,1.7,2.4c1.1,0.1,2,0.4,1.9,1.2
		c0,0.1,0,0.2-0.1,0.3c-0.1,0.1-0.1,0.2-0.2,0.2c-0.1,0.1-0.2,0.1-0.3,0.1c-0.1,0-0.2,0-0.3,0c-4.5-1.4-6.3-0.9-7.8,1.5
		c-0.7,1.1-0.9,2.3-0.8,3.5c0.2,1.2,0.7,2.4,1.6,3.2c0,0,1.1,0.9,0.7-1.2c0,0-0.4-1.7,0.7-2.2c0.5-0.3,0.9,0.4,1.2,0.8
		c0.1,0.2,0.3,0.4,0.5,0.5c0.2,0.1,0.4,0.3,0.7,0.3c0.2,0.1,0.5,0.1,0.7,0c0.2,0,0.5-0.1,0.7-0.2c0.7-0.5,1.5-0.3,0.7,0.6
		c-0.8,0.8-1.8,3.6,0.7,6.9c1.1,1.4,4.5,3,5.5,1.4c0.3-0.4-2-0.5-2.7-1c-0.7-0.5-0.8-1.6,0.7-1.8c0,0,2.7-0.2,2-2.8
		c-0.3-1,0.7-4,4-2.8c1,0.3,2.1,0.5,3.2,0.5c0.8,0.1,1.8,1-0.7,2.9c0,0-0.9,0.8-0.4,1.1c1.2,0,2.5-0.4,3.4-1.3
		c0.6-0.6,1.1-1.4,1.4-2.2c0.3-0.8,0.4-1.7,0.2-2.6c-0.4-1.1-1.1-2.1-2-2.8c0,0-0.1-0.1-0.1-0.1c0,0,0-0.1,0-0.1c0,0,0-0.1,0.1-0.1
		c0,0,0.1,0,0.1,0c1.9,0.2,3.6,1.1,6.2-2.3c0.2-0.2,0.4-0.3,0.6-0.4c0.2-0.1,0.5-0.1,0.7,0c0.2,0.1,0.4,0.2,0.6,0.4
		c0.2,0.2,0.3,0.4,0.3,0.7c0,0.1,0,0.1,0.1,0.2c0,0.1,0.1,0.1,0.2,0.1c0.1,0,0.1,0,0.2,0c0.1,0,0.1-0.1,0.1-0.1
		c0.3-0.5,0.3-1.2,0.2-1.8c-0.3-2.1,0.3-3.8,1.3-4.4c1-0.6,1.4,0.9,1.4,1.4c0,0.4-0.2,0.7-0.3,1c0,0.1,0,0.1,0,0.2
		c0,0.1,0,0.1,0.1,0.2c0,0,0.1,0.1,0.1,0.1c0.1,0,0.1,0,0.2,0c0.4,0,0.7-0.2,1.1-0.4c0.3-0.2,0.6-0.5,0.7-0.8
		c0.7-1.4,0.3-2.8,0.8-4.1c0.9-2.1,4.4-1.5,9.7-3.2c5.4-1.6,10.7-3.8,15.7-6.5c3.8-2.2,7.2-5.1,8-4c0.6,0.9-0.9,2.3-5,4.9
		c-4.9,3.1-4,5.4-4.6,6.3c-1,1.5-2.1,0.9-2.6,0.5c0,0-0.1-0.1-0.1-0.1c0,0-0.1,0-0.1,0c0,0-0.1,0-0.1,0.1s-0.1,0.1-0.1,0.1
		c-0.1,0.4-0.2,0.7-0.2,1.1c0,0.3,0.1,0.5,0.3,0.7c0.1,0.2,0.3,0.4,0.6,0.5c0.2,0.1,0.5,0.2,0.7,0.2c0.3,0,0.5,0,0.8-0.1
		c0.8-0.3,1.4,1.4,0.8,2.3c-0.4,0.6-2,1.7-3.1,1.2c-0.4-0.2-0.7-0.4-1-0.8c-0.3-0.4-1.3-3.2-3.8-3.6c-0.9-0.1-1.7,0-2.5,0.5
		c-0.6,0.4-1.2,1-1.6,1.7c-0.6,0.8-0.4,1.4,0,1.2c0.4-0.2,1.2-1.3,1.7-1.1c0.1,0,0.2,0.1,0.3,0.1c0.1,0.1,0.1,0.1,0.2,0.2
		c0,0.1,0.1,0.2,0.1,0.3c0,0.1,0,0.2-0.1,0.3c-0.3,1.1,1.4,1.5,1.1,2.1c-0.1,0.2-0.2,0.3-0.3,0.3c-0.6,0-1.1-0.1-1.6-0.3
		c-1.1-0.3-2.5-0.5-4.7,1.2c-0.8,0.7-1.4,1.6-1.5,2.7c-0.2,1,0,2.1,0.5,3c0,0,0.6,1,0.8-0.8c0,0,0.1-1.4,1.2-1.6
		c0.5-0.1,0.6,0.5,0.8,1c0,0.2,0.1,0.4,0.3,0.5c0.1,0.2,0.3,0.3,0.4,0.4c0.2,0.1,0.4,0.2,0.6,0.2c0.2,0,0.4,0,0.6,0
		c0.7-0.2,1.3,0.1,0.5,0.6c-0.9,0.6-1.6,1.6-1.8,2.6c-0.3,1.1-0.1,2.2,0.4,3.2c0.6,1.3,1.8,2.9,3.8,2.5c0.2,0,0.5-0.3,0.2-0.5
		c-0.5-0.3-1.4-0.6-1.6-1.2c-0.3-0.7-0.3-1.5,1-1.2c0,0,2.6,0.8,4.3-2.3c0.4-0.8,1.8-3.3,3.6-2.1c1.2,0.8,1.4,3.1-1,4
		c0,0-1,0.5-0.6,0.8c1,0.3,2.1,0.2,3-0.2c1-0.5,1.8-1.4,2.3-2.5c0.3-0.4,0.6-2.7,1.2-3.4c1.2-1.4,2.9-2.3,4.6-2.9
		c3.7-0.8,6.9-2.9,9.3-5.8c0,0,2.4-3.3-2.2-4.3c-0.1,0-0.3-0.1-0.4-0.2c-0.1-0.1-0.2-0.2-0.3-0.3c-0.2-0.4-0.2-1.5,1.2-2.4
		c1.3-0.9,2.6-2,3.7-3.2c0,0,0.1,0,0.1-0.1c0,0,0.1,0,0.1,0c0,0,0.1,0,0.1,0.1c0,0,0,0.1,0,0.1c0.3,3.2,0.2,4.5,2.1,5.7
		c2.3,1.4,5.7,1.6,5.6,3.6c0,0.2-0.1,0.4-0.3,0.6c-0.1,0.2-0.3,0.3-0.5,0.4c0,0-0.1,0-0.1,0.1c0,0,0,0.1,0,0.1c0,0,0,0.1,0,0.1
		c0,0,0,0.1,0.1,0.1c0.3,0.3,0.7,0.5,1.1,0.6c0.6,0.2,1.5,0,2.5-1.3c0.4-0.5,0.9-0.9,1.5-1.1c0.2-0.1,0.5-0.1,0.7,0
		c0.2,0,0.5,0.1,0.7,0.3c0.2,0.1,0.4,0.3,0.5,0.5c0.1,0.2,0.2,0.4,0.3,0.7c0.4,1.3,0.7,3.3,0.2,4c-0.3,0.4-1.9,0-2.4,0
		c-2.9-0.3-5,1.1-5.6,3.3c-0.4,1-0.5,2.2-0.3,3.3c0.2,0.7,0.6,1.4,1.1,2c0.6,0.8,1.2,0.8,1.1,0.3c-0.1-0.7-0.1-1.5,0.1-2.1
		c0.9-1.4,1.6-1.1,2.2-0.8c0.9,0.5,0.2,2,0,2.3c-0.6,1-1.3,2.2-0.3,4.9c0.4,1,1.1,1.8,2.1,2.3c0.9,0.5,2,0.6,3.1,0.4
		c0,0,1.1-0.3-0.5-1c0,0-1.4-0.5-1.2-1.6c0.1-0.5,0.8-0.2,1.3-0.2c0.7,0.1,2.4-0.2,2.4-1.6c0-2.5,0.9-1.6,1.2-0.7c0.3,1.1,1,2,2,2.5
		c0.9,0.6,2.1,0.8,3.2,0.6c1.4-0.1,3.3-0.9,3.6-2.8c0-0.2-0.1-0.6-0.4-0.3c-0.4,0.4-1,1.1-1.6,1.2c-0.6,0.1-1.3-0.1-1-0.9
		c0.1-0.2,0.3-0.5,0.5-0.7c0.5-0.6,1.2-2-0.7-4c-0.6-0.6-1.2-1.5-0.4-2.3c1.1-1,2.9-0.1,3,2.5c0,0,0.1,0.7,0.6,0.8
		c1,0.3,3.5-5.2-1-6.9c-1.3-0.4-2,0.1-2.5-0.7c-0.9-1.5-0.8-6.6-0.7-8.1c0.7-6.1-3.1-7.6-5.5-6.7c-0.7,0.3-1.2,1.2-2.2,1.2
		c-1.4,0-3-4.6-3.2-5.2c-0.8-2.8-2.3-5.3-4.5-7.3c0,0,0,0,0-0.1c0,0,0-0.1,0-0.1c0.2-1.2,3.6-0.6,5.8,0.2c3.9,1.3,1,2.5,1.3,5.4
		c0.1,0.7,0.3,1.3,0.8,1.8c0.5,0.5,1.1,0.8,1.7,0.8c0.1,0,0.2,0,0.2,0c0.1,0,0.1-0.1,0.2-0.2c0-0.1,0-0.1,0-0.2c0-0.1,0-0.1-0.1-0.2
		c-0.1-0.1-0.8-0.1-1.1-0.9c-0.3-0.8,0.5-1.3,1.4-1.5c1.2-0.4,2.8-1.5,2.4-2.8c-0.1-0.3-0.2-0.7-0.4-1c0,0-0.1-0.1-0.1-0.1
		c0,0,0-0.1,0-0.1C134.7,106.7,134.7,106.7,134.8,106.6z M71.6,77.4c0,0.2-0.1,0.4-0.3,0.6c-0.2,0.2-0.4,0.4-0.7,0.5
		c-0.3,0.1-0.6,0.1-0.9,0.1c-0.6-0.1-1.4-0.5-1-1.6c0.9,0,1.9-0.1,2.8-0.3C71.7,76.9,71.7,77.2,71.6,77.4z"/>
	<path class="st0" d="M112.6,176.1c0-0.1-0.1-0.2-0.2-0.3c-0.1-0.1-0.2-0.1-0.3-0.2c-0.1,0-0.2-0.1-0.3-0.1h-4.3l2.5-3.5
		c1.9-2.3,2.5-3.6,2.5-5.7v-0.1c0-2.9-2-4.8-5-4.8c-0.8,0-1.6,0.1-2.4,0.4c-0.8,0.3-1.4,0.8-2,1.4c-0.1,0.1-0.2,0.3-0.2,0.4
		c0,0.2,0,0.3,0.1,0.5l0.8,1.7c0.1,0.1,0.1,0.2,0.2,0.3c0.1,0.1,0.2,0.1,0.3,0.2c0.1,0,0.2,0,0.4,0c0.1,0,0.2-0.1,0.3-0.2
		c0.6-0.6,1.3-0.9,2.1-0.9c0.2,0,0.4,0,0.6,0.1c0.2,0.1,0.4,0.2,0.5,0.3c0.1,0.1,0.3,0.3,0.3,0.5c0.1,0.2,0.1,0.4,0.1,0.6
		c0,0.9-0.5,1.8-1.9,3.7l-4.2,5.8v2.4c0,0.2,0.1,0.4,0.2,0.6c0.1,0.1,0.3,0.2,0.6,0.2h8.5c0.1,0,0.2,0,0.3-0.1
		c0.1,0,0.2-0.1,0.3-0.2c0.1-0.1,0.1-0.2,0.2-0.3c0-0.1,0.1-0.2,0.1-0.3v-2.2C112.7,176.3,112.7,176.2,112.6,176.1z"/>
	<path class="st0" d="M83.9,170c0.6-0.4,1-1,1.3-1.6c0.3-0.6,0.4-1.3,0.4-2v-0.1c0-0.7-0.1-1.3-0.4-1.9c-0.3-0.6-0.6-1.1-1.1-1.6
		c-0.5-0.5-1-0.8-1.7-1c-0.6-0.2-1.3-0.3-1.9-0.3c-0.7,0-1.3,0.1-1.9,0.3c-0.6,0.2-1.2,0.6-1.7,1c-0.5,0.5-0.9,1-1.1,1.6
		c-0.3,0.6-0.4,1.3-0.4,1.9v0.1c0,0.7,0.1,1.4,0.4,2c0.3,0.6,0.7,1.2,1.3,1.6c-0.7,0.5-1.2,1.1-1.6,1.8c-0.4,0.7-0.5,1.5-0.5,2.4
		v0.1c0,0.7,0.1,1.4,0.4,2.1c0.3,0.7,0.7,1.3,1.2,1.8c0.5,0.5,1.1,0.9,1.8,1.1c0.7,0.2,1.4,0.3,2.1,0.3c3.3,0,5.5-2.1,5.5-5.3v-0.1
		c0-0.8-0.1-1.6-0.5-2.3C85.2,171.1,84.6,170.5,83.9,170z M79.2,166.6c0-0.7,0.2-1.8,1.3-1.8s1.3,1,1.3,1.9v0.1
		c0,1.2-0.5,1.9-1.3,1.9C79.7,168.7,79.2,168,79.2,166.6L79.2,166.6z M82.2,174.1c0,1.4-0.6,2.1-1.6,2.1s-1.6-0.7-1.6-2.1V174
		c0-1.3,0.6-2.1,1.6-2.1c1.1,0,1.6,0.7,1.6,2.1V174.1z"/>
	<path class="st0" d="M98.7,161.7h-8.2c-0.2,0-0.4,0.1-0.6,0.2c-0.1,0.1-0.2,0.3-0.2,0.6v2.2c0,0.1,0,0.2,0.1,0.3
		c0,0.1,0.1,0.2,0.2,0.3c0.1,0.1,0.2,0.1,0.3,0.2c0.1,0,0.2,0.1,0.3,0.1h4.7l-4.7,12.8c0,0.1-0.1,0.2,0,0.4c0,0.1,0.1,0.2,0.1,0.3
		c0.1,0.1,0.2,0.2,0.3,0.2c0.1,0.1,0.2,0.1,0.4,0.1h2.5c0.2,0,0.3-0.1,0.4-0.1c0.1-0.1,0.2-0.2,0.3-0.4l4.9-14.2c0-0.1,0-0.2,0-0.2
		v-1.9c0-0.2-0.1-0.4-0.2-0.5C99,161.8,98.8,161.7,98.7,161.7z"/>
	<path class="st0" d="M69.8,161.7h-4.6c-0.1,0-0.2,0-0.3,0.1c-0.1,0-0.2,0.1-0.3,0.2c-0.1,0.1-0.1,0.2-0.2,0.3
		c0,0.1-0.1,0.2-0.1,0.3v2.2c0,0.1,0,0.2,0.1,0.3c0,0.1,0.1,0.2,0.2,0.3c0.1,0.1,0.2,0.1,0.3,0.2c0.1,0,0.2,0.1,0.3,0.1h1.4v13.1
		c0,0.1,0,0.2,0.1,0.3c0,0.1,0.1,0.2,0.2,0.3c0.1,0.1,0.2,0.1,0.3,0.2c0.1,0,0.2,0.1,0.3,0.1h2.4c0.2,0,0.4-0.1,0.5-0.2
		c0.1-0.1,0.2-0.3,0.2-0.5v-16.1c0-0.2-0.1-0.4-0.2-0.5C70.2,161.8,70,161.7,69.8,161.7z"/>
</g>
</svg>
